<?xml version="1.0" encoding="UTF-8" standalone="no"?>
<svg
   xmlns:dc="http://purl.org/dc/elements/1.1/"
   xmlns:cc="http://creativecommons.org/ns#"
   xmlns:rdf="http://www.w3.org/1999/02/22-rdf-syntax-ns#"
   xmlns:svg="http://www.w3.org/2000/svg"
   xmlns="http://www.w3.org/2000/svg"
   viewBox="0 0 682.66669 665.56"
   height="665.56"
   width="682.66669"
   xml:space="preserve"
   id="svg2"
   version="1.1"><metadata
     id="metadata8"><rdf:RDF><cc:Work
         rdf:about=""><dc:format>image/svg+xml</dc:format><dc:type
           rdf:resource="http://purl.org/dc/dcmitype/StillImage" /></cc:Work></rdf:RDF></metadata><defs
     id="defs6" /><g
     transform="matrix(1.3333333,0,0,-1.3333333,0,665.56)"
     id="g10"><g
       transform="scale(0.1)"
       id="g12"><path
         id="path14"
         style="fill:#ffffff;fill-opacity:1;fill-rule:nonzero;stroke:none"
         d="m 2560,2124.19 c -44.28,0 -80.17,-35.9 -80.17,-80.17 v -301.23 c 0,-44.28 35.89,-80.17 80.17,-80.17 44.28,0 80.17,35.89 80.17,80.17 v 301.23 c 0,44.27 -35.89,80.17 -80.17,80.17" /><path
         id="path16"
         style="fill:#ffffff;fill-opacity:1;fill-rule:nonzero;stroke:none"
         d="m 2560,2867.55 c 44.28,0 80.17,35.89 80.17,80.17 v 301.23 c 0,44.28 -35.89,80.17 -80.17,80.17 -44.28,0 -80.17,-35.89 -80.17,-80.17 v -301.23 c 0,-44.28 35.89,-80.17 80.17,-80.17" /><path
         id="path18"
         style="fill:#ffffff;fill-opacity:1;fill-rule:nonzero;stroke:none"
         d="m 2560,1521.72 c -44.28,0 -80.17,-35.9 -80.17,-80.17 v -301.24 c 0,-44.27 35.89,-80.16 80.17,-80.16 44.28,0 80.17,35.89 80.17,80.16 v 301.24 c 0,44.27 -35.89,80.17 -80.17,80.17" /><path
         id="path20"
         style="fill:#ffffff;fill-opacity:1;fill-rule:nonzero;stroke:none"
         d="m 2560,3470.02 c 44.28,0 80.17,35.89 80.17,80.17 v 301.23 c 0,44.28 -35.89,80.17 -80.17,80.17 -44.28,0 -80.17,-35.89 -80.17,-80.17 v -301.23 c 0,-44.28 35.89,-80.17 80.17,-80.17" /><path
         id="path22"
         style="fill:#ffffff;fill-opacity:1;fill-rule:nonzero;stroke:none"
         d="m 1505.68,2576.03 h -301.24 c -44.28,0 -80.17,-35.89 -80.17,-80.17 0,-44.27 35.89,-80.16 80.17,-80.16 h 301.24 c 44.28,0 80.16,35.89 80.16,80.16 0,44.28 -35.88,80.17 -80.16,80.17" /><path
         id="path24"
         style="fill:#ffffff;fill-opacity:1;fill-rule:nonzero;stroke:none"
         d="M 2108.15,2576.03 H 1806.9 c -44.28,0 -80.17,-35.89 -80.17,-80.17 0,-44.27 35.89,-80.16 80.17,-80.16 h 301.25 c 44.28,0 80.16,35.89 80.16,80.16 0,44.28 -35.88,80.17 -80.16,80.17" /><path
         id="path26"
         style="fill:#ffffff;fill-opacity:1;fill-rule:nonzero;stroke:none"
         d="m 2710.62,2576.03 h -70.45 v 70.45 c 0,44.27 -35.89,80.17 -80.17,80.17 -44.28,0 -80.17,-35.9 -80.17,-80.17 v -70.45 h -70.45 c -44.28,0 -80.16,-35.89 -80.16,-80.17 0,-44.27 35.88,-80.16 80.16,-80.16 h 70.45 v -70.45 c 0,-44.28 35.89,-80.17 80.17,-80.17 44.28,0 80.17,35.89 80.17,80.17 v 70.45 h 70.45 c 44.28,0 80.16,35.89 80.16,80.16 0,44.28 -35.89,80.17 -80.16,80.17" /><path
         id="path28"
         style="fill:#ffffff;fill-opacity:1;fill-rule:nonzero;stroke:none"
         d="M 3915.55,2576.03 H 3614.3 c -44.28,0 -80.16,-35.89 -80.16,-80.17 0,-44.27 35.88,-80.16 80.16,-80.16 h 301.25 c 44.28,0 80.17,35.89 80.17,80.16 0,44.28 -35.89,80.17 -80.17,80.17" /><path
         id="path30"
         style="fill:#ffffff;fill-opacity:1;fill-rule:nonzero;stroke:none"
         d="m 3313.08,2576.03 h -301.24 c -44.28,0 -80.16,-35.89 -80.16,-80.17 0,-44.27 35.88,-80.16 80.16,-80.16 h 301.24 c 44.28,0 80.17,35.89 80.17,80.16 0,44.28 -35.89,80.17 -80.17,80.17" /><path
         id="path32"
         style="fill:#ffffff;fill-opacity:1;fill-rule:nonzero;stroke:none"
         d="m 2640.17,758.91 v 80.168 c 0,44.274 -35.89,80.172 -80.17,80.172 -44.28,0 -80.17,-35.898 -80.17,-80.172 V 758.91 H 801.672 V 2415.7 h 101.543 c 44.285,0 80.168,35.89 80.168,80.16 0,44.28 -35.883,80.17 -80.168,80.17 H 801.672 V 4232.82 H 2479.83 v -80.17 c 0,-44.27 35.89,-80.17 80.17,-80.17 44.28,0 80.17,35.9 80.17,80.17 v 80.17 H 4318.33 V 2576.03 h -101.55 c -44.28,0 -80.16,-35.89 -80.16,-80.17 0,-44.27 35.88,-80.16 80.16,-80.16 h 101.55 V 758.91 Z M 4398.5,4393.15 H 721.504 c -44.285,0 -80.168,-35.89 -80.168,-80.17 V 678.738 c 0,-44.269 35.883,-80.156 80.168,-80.156 H 4398.5 c 44.28,0 80.16,35.887 80.16,80.156 V 4312.98 c 0,44.28 -35.88,80.17 -80.16,80.17" /><path
         id="path34"
         style="fill:#ffffff;fill-opacity:1;fill-rule:nonzero;stroke:none"
         d="m 4398.5,4991.73 c -44.29,0 -80.17,-35.89 -80.17,-80.17 v -342.04 c 0,-44.28 35.88,-80.17 80.17,-80.17 44.28,0 80.16,35.89 80.16,80.17 v 342.04 c 0,44.28 -35.88,80.17 -80.16,80.17" /><path
         id="path36"
         style="fill:#ffffff;fill-opacity:1;fill-rule:nonzero;stroke:none"
         d="m 4697.79,4232.82 h 342.04 c 44.29,0 80.17,35.89 80.17,80.16 0,44.28 -35.88,80.17 -80.17,80.17 h -342.04 c -44.29,0 -80.17,-35.89 -80.17,-80.17 0,-44.27 35.88,-80.16 80.17,-80.16" /><path
         id="path38"
         style="fill:#ffffff;fill-opacity:1;fill-rule:nonzero;stroke:none"
         d="m 721.504,4489.35 c 44.281,0 80.168,35.89 80.168,80.17 v 342.04 c 0,44.28 -35.887,80.17 -80.168,80.17 -44.285,0 -80.168,-35.89 -80.168,-80.17 v -342.04 c 0,-44.28 35.883,-80.17 80.168,-80.17" /><path
         id="path40"
         style="fill:#ffffff;fill-opacity:1;fill-rule:nonzero;stroke:none"
         d="M 422.215,4393.15 H 80.168 C 35.8828,4393.15 0,4357.26 0,4312.98 c 0,-44.27 35.8828,-80.16 80.168,-80.16 h 342.047 c 44.281,0 80.164,35.89 80.164,80.16 0,44.28 -35.883,80.17 -80.164,80.17" /><path
         id="path42"
         style="fill:#ffffff;fill-opacity:1;fill-rule:nonzero;stroke:none"
         d="m 4398.5,502.379 c -44.29,0 -80.17,-35.899 -80.17,-80.168 V 80.1602 C 4318.33,35.8906 4354.21,0 4398.5,0 c 44.28,0 80.16,35.8906 80.16,80.1602 V 422.211 c 0,44.269 -35.88,80.168 -80.16,80.168" /><path
         id="path44"
         style="fill:#ffffff;fill-opacity:1;fill-rule:nonzero;stroke:none"
         d="m 5039.83,758.91 h -342.04 c -44.29,0 -80.17,-35.89 -80.17,-80.172 0,-44.269 35.88,-80.156 80.17,-80.156 h 342.04 c 44.29,0 80.17,35.887 80.17,80.156 0,44.282 -35.88,80.172 -80.17,80.172" /><path
         id="path46"
         style="fill:#ffffff;fill-opacity:1;fill-rule:nonzero;stroke:none"
         d="m 721.504,502.379 c -44.285,0 -80.168,-35.899 -80.168,-80.168 V 80.1602 C 641.336,35.8906 677.219,0 721.504,0 c 44.281,0 80.168,35.8906 80.168,80.1602 V 422.211 c 0,44.269 -35.887,80.168 -80.168,80.168" /><path
         id="path48"
         style="fill:#ffffff;fill-opacity:1;fill-rule:nonzero;stroke:none"
         d="M 422.215,758.91 H 80.168 C 35.8828,758.91 0,723.02 0,678.738 0,634.469 35.8828,598.582 80.168,598.582 h 342.047 c 44.281,0 80.164,35.887 80.164,80.156 0,44.282 -35.883,80.172 -80.164,80.172" /></g></g></svg>