<svg xmlns="http://www.w3.org/2000/svg" width="12.188" height="16" viewBox="0 0 12.188 16">
  <metadata><?xpacket begin="﻿" id="W5M0MpCehiHzreSzNTczkc9d"?>
<x:xmpmeta xmlns:x="adobe:ns:meta/" x:xmptk="Adobe XMP Core 5.6-c138 79.159824, 2016/09/14-01:09:01        ">
   <rdf:RDF xmlns:rdf="http://www.w3.org/1999/02/22-rdf-syntax-ns#">
      <rdf:Description rdf:about=""/>
   </rdf:RDF>
</x:xmpmeta>
                                                                                                    
                                                                                                    
                                                                                                    
                                                                                                    
                                                                                                    
                                                                                                    
                                                                                                    
                                                                                                    
                                                                                                    
                                                                                                    
                                                                                                    
                                                                                                    
                                                                                                    
                                                                                                    
                                                                                                    
                                                                                                    
                                                                                                    
                                                                                                    
                                                                                                    
                                                                                                    
                           
<?xpacket end="w"?></metadata>
<defs>
    <style>
      .cls-1 {
        fill: #333;
        fill-rule: evenodd;
      }
    </style>
  </defs>
  <path id="_3954.58_копия" data-name="3954.58 ₽  копия" class="cls-1" d="M449.64,2968.99h-4.656v7.39H443.3V2979h1.68v1.51H443.3v2.16h1.68V2985h3.12v-2.33h4.416v-2.16H448.1V2979h2.016a5.4,5.4,0,0,0,4.057-1.42,4.517,4.517,0,0,0,1.32-3.45,5.194,5.194,0,0,0-1.632-3.92C452.688,2969.18,451.44,2968.99,449.64,2968.99Zm-1.536,2.69h1.08a3.8,3.8,0,0,1,2.208.5,2.22,2.22,0,0,1,.888,1.83,2.4,2.4,0,0,1-.864,1.87,3.213,3.213,0,0,1-2.04.5H448.1v-4.7Z" transform="translate(-443.312 -2969)"/>
</svg>
